<?xml version="1.0" standalone="no"?><!DOCTYPE svg PUBLIC "-//W3C//DTD SVG 1.1//EN" "http://www.w3.org/Graphics/SVG/1.1/DTD/svg11.dtd"><svg t="1559614805155" class="icon" style="" viewBox="0 0 1024 1024" version="1.1" xmlns="http://www.w3.org/2000/svg" p-id="5600" xmlns:xlink="http://www.w3.org/1999/xlink" width="16" height="16"><defs><style type="text/css"></style></defs><path d="M451.669333 512l-90.538666 90.496a42.666667 42.666667 0 0 0 60.373333 60.373333L512 572.330667l30.165333 30.165333a85.333333 85.333333 0 0 1 0 120.704L421.546667 843.861333a85.333333 85.333333 0 0 1-120.704 0L180.138667 723.2a85.333333 85.333333 0 0 1 0-120.704l120.661333-120.661333a85.333333 85.333333 0 0 1 120.704 0l30.165333 30.165333z" fill="#000000" opacity=".3" p-id="5601"></path><path d="M572.330667 512l90.538666-90.496a42.666667 42.666667 0 1 0-60.373333-60.373333L512 451.669333l-30.165333-30.165333a85.333333 85.333333 0 0 1 0-120.704l120.661333-120.661333a85.333333 85.333333 0 0 1 120.704 0l120.661333 120.661333a85.333333 85.333333 0 0 1 0 120.704l-120.661333 120.661333a85.333333 85.333333 0 0 1-120.704 0L572.330667 512z" fill="#000000" p-id="5602"></path></svg>