<?xml version="1.0" standalone="no"?><!DOCTYPE svg PUBLIC "-//W3C//DTD SVG 1.1//EN" "http://www.w3.org/Graphics/SVG/1.1/DTD/svg11.dtd"><svg t="1558421234951" class="icon" style="" viewBox="0 0 1024 1024" version="1.1" xmlns="http://www.w3.org/2000/svg" p-id="1700" xmlns:xlink="http://www.w3.org/1999/xlink" width="20" height="20"><defs><style type="text/css"></style></defs><path d="M920 507v370H104V507h816m40-40H64v450h896V467z m-657.2-50v50h-50v-50h50m-5-310h-40v270h-45v130h130V377h-45V107z m473.4 310v50h-50v-50h50m-5-310h-40v270h-45v130h130V377h-45V107zM252 602h-40v180h40V602z m101 0h-40v180h40V602z m101 0h-40v180h40V602z m101 0h-40v180h40V602z m101 0h-40v180h40V602z m156 0h-40v40h40v-40z m0 70h-40v40h40v-40z m0 70h-40v40h40v-40z" fill="" p-id="1701"></path></svg>