<?xml version="1.0" standalone="no"?><!DOCTYPE svg PUBLIC "-//W3C//DTD SVG 1.1//EN" "http://www.w3.org/Graphics/SVG/1.1/DTD/svg11.dtd"><svg t="1559546023644" class="icon" style="" viewBox="0 0 1024 1024" version="1.1" xmlns="http://www.w3.org/2000/svg" p-id="2292" xmlns:xlink="http://www.w3.org/1999/xlink" width="16" height="16"><defs><style type="text/css"></style></defs><path d="M224.768 256.96h63.488a32 32 0 0 0 0-64h-63.488a32 32 0 0 0 0 64zM224.768 384.32h63.488a32 32 0 0 0 0-64h-63.488a32 32 0 0 0 0 64zM224.768 512h63.488a32 32 0 0 0 0-64h-63.488a32 32 0 0 0 0 64z" fill="" p-id="2293"></path><path d="M384.512 63.808H128.896a64 64 0 0 0-64 64v768.384a64 64 0 0 0 64 64h255.616a64 64 0 0 0 64-64V127.808a64 64 0 0 0-64-64z m0 800.384a32 32 0 0 1-32 32H160.896a32 32 0 0 1-32-32V159.808a32 32 0 0 1 32-32h191.616a32 32 0 0 1 32 32v704.384z" fill="" p-id="2294"></path><path d="M256.64 704.384m-63.872 0a63.872 63.872 0 1 0 127.744 0 63.872 63.872 0 1 0-127.744 0Z" fill="" p-id="2295"></path><path d="M735.424 256.96h63.488a32 32 0 0 0 0-64h-63.488a32 32 0 0 0 0 64zM735.424 384.32h63.488a32 32 0 0 0 0-64h-63.488a32 32 0 0 0 0 64zM735.424 512h63.488a32 32 0 0 0 0-64h-63.488a32 32 0 0 0 0 64z" fill="" p-id="2296"></path><path d="M895.104 63.808H639.488a64 64 0 0 0-64 64v768.384a64 64 0 0 0 64 64h255.616a64 64 0 0 0 64-64V127.808a64 64 0 0 0-64-64z m0 800.384a32 32 0 0 1-32 32h-191.616a32 32 0 0 1-32-32V159.808a32 32 0 0 1 32-32h191.616a32 32 0 0 1 32 32v704.384z" fill="" p-id="2297"></path><path d="M767.232 704.384m-63.872 0a63.872 63.872 0 1 0 127.744 0 63.872 63.872 0 1 0-127.744 0Z" fill="" p-id="2298"></path></svg>