<?xml version="1.0" standalone="no"?><!DOCTYPE svg PUBLIC "-//W3C//DTD SVG 1.1//EN" "http://www.w3.org/Graphics/SVG/1.1/DTD/svg11.dtd"><svg t="1583722201457" class="icon" viewBox="0 0 1024 1024" version="1.1" xmlns="http://www.w3.org/2000/svg" p-id="7031" xmlns:xlink="http://www.w3.org/1999/xlink" width="200" height="200"><defs><style type="text/css"></style></defs><path d="M478.269877 741.132213H219.129487c-3.721945 0-6.978646-3.256701-6.978646-6.978646v-28.379828c0-22.79691 18.14448-40.94139 40.94139-40.94139h191.214902c22.79691 0 40.94139 18.609723 40.94139 40.94139v28.379828c0 3.721945-3.256701 6.978646-6.978646 6.978646z m-252.161744-13.957293h245.183098v-21.401181c0-14.887778-12.09632-26.984098-26.984098-26.984098H253.092231c-14.887778 0-26.984098 12.09632-26.984098 26.984098v21.401181zM697.399364 741.132213H516.419809c-3.721945 0-6.978646-3.256701-6.978646-6.978646v-20.005453c0-16.748751 13.957292-30.706043 30.706043-30.706042h133.524761c16.748751 0 30.706043 13.957292 30.706043 30.706042v20.005453c0 3.721945-3.256701 6.978646-6.978646 6.978646z m-174.000909-13.957293h167.022263v-13.026806c0-9.304861-7.443889-16.748751-16.748751-16.74875h-133.524761c-9.304861 0-16.748751 7.443889-16.748751 16.74875v13.026806zM593.184916 434.537029c-11.165834 0-20.470695-9.304861-20.470695-20.935939 0-11.165834 9.304861-20.470695 20.935938-20.470695 11.165834 0 20.470695 9.304861 20.470695 20.470695 0 11.631077-9.304861 20.935938-20.935938 20.935939 0.465243 0 0.465243 0 0 0z m0-26.984099c-3.721945 0-6.513403 3.256701-6.513403 6.978647s3.256701 6.513403 6.978646 6.513403 6.513403-3.256701 6.513403-6.513403c0-4.187188-2.791458-6.978646-6.978646-6.978647 0.465243 0 0.465243 0 0 0zM522.933212 531.772831H435.932758c-3.721945 0-6.978646-3.256701-6.978646-6.978647V437.79373c0-3.721945 3.256701-6.978646 6.978646-6.978646h87.000454c3.721945 0 6.978646 3.256701 6.978646 6.978646v87.000454c0 4.187188-3.256701 6.978646-6.978646 6.978647z m-80.021808-13.957293h73.043162V444.772376H442.911404v73.043162z" fill="#363636" p-id="7032"></path><path d="M580.15811 531.772831h-57.224898c-3.721945 0-6.978646-3.256701-6.978646-6.978647V437.79373c0-3.721945 3.256701-6.978646 6.978646-6.978646h27.914584c3.721945 0 6.513403 2.791458 6.978647 6.513403 2.326215 25.588369 23.727397 45.128578 49.781008 45.128578 3.721945 0 6.978646 3.256701 6.978646 6.978646s-3.256701 6.978646-6.978646 6.978646h-37.219446c1.860972 5.117674 6.513403 8.374375 12.09632 8.374375 3.721945 0 6.978646 3.256701 6.978646 6.978646v0.930487l-1.860972 13.026806c-1.395729 3.721945-4.187188 6.04816-7.443889 6.04816z m-50.246252-13.957293h44.198092v-0.465243c-11.165834-3.256701-18.609723-13.492049-18.609723-25.123126v-2.791458c0-3.721945 3.256701-6.978646 6.978646-6.978646h5.117674c-11.631077-9.304861-19.540209-22.79691-22.331667-37.684689H530.377101l-0.465243 73.043162zM783.934575 444.772376h-87.000454c-3.721945 0-6.978646-3.256701-6.978646-6.978646V350.793276c0-3.721945 3.256701-6.978646 6.978646-6.978646h87.000454c3.721945 0 6.978646 3.256701 6.978646 6.978646v87.000454c0 3.721945-3.256701 6.978646-6.978646 6.978646z m-80.021808-13.957292H776.955929V357.771922h-73.043162v73.043162z" fill="#363636" p-id="7033"></path><path d="M783.934575 357.771922h-87.000454c-3.721945 0-6.978646-3.256701-6.978646-6.978646V263.792821c0-3.721945 3.256701-6.978646 6.978646-6.978646h87.000454c3.721945 0 6.978646 3.256701 6.978646 6.978646v87.000455c0 3.721945-3.256701 6.978646-6.978646 6.978646z m-80.021808-13.957292H776.955929V270.771468h-73.043162v73.043162zM783.934575 183.771013h-87.000454c-3.721945 0-6.978646-3.256701-6.978646-6.978646V89.791913c0-3.721945 3.256701-6.978646 6.978646-6.978646h87.000454c3.721945 0 6.978646 3.256701 6.978646 6.978646V176.792367c0 3.721945-3.256701 6.978646-6.978646 6.978646z m-80.021808-13.957292H776.955929V96.770559h-73.043162v73.043162zM435.932758 531.772831h-34.427987c-3.256701 0-6.513403-2.326215-6.978647-6.04816l-12.561562-87.000455c-0.465243-3.721945 2.326215-7.443889 6.048159-7.909132H435.932758c3.721945 0 6.978646 3.256701 6.978646 6.978646v87.000454c0 4.187188-3.256701 6.978646-6.978646 6.978647z m-28.379828-13.957293h21.401182V444.772376h-32.101772l10.70059 73.043162zM696.934121 531.772831h-62.342572c-3.256701 0-6.513403-2.326215-6.978646-6.04816l-1.860972-13.026806c-0.465243-3.721945 1.860972-7.443889 6.04816-7.909133h0.930486c5.582917 0 10.235348-3.256701 12.09632-8.374375h-34.89323c-3.721945 0-6.978646-3.256701-6.978647-6.978646s2.791458-6.978646 6.513403-6.978646c24.657883-1.395729 44.663335-20.470695 47.454794-45.128578 0.465243-3.721945 3.256701-6.513403 6.978646-6.513403h33.032258c3.721945 0 6.978646 3.256701 6.978646 6.978646v87.000454c0 4.187188-3.256701 6.978646-6.978646 6.978647z m-56.294412-13.957293h49.315766V444.772376H669.950023c-2.791458 14.887778-11.165834 27.914584-22.796911 37.684689h5.117674c3.721945 0 6.978646 3.256701 6.978646 6.978646v2.791458c0 11.631077-7.443889 21.866424-18.609723 25.123126v0.465243z m-30.706042-28.84507z" fill="#363636" p-id="7034"></path><path d="M783.934575 531.772831h-87.000454c-3.721945 0-6.978646-3.256701-6.978646-6.978647V437.79373c0-3.721945 3.256701-6.978646 6.978646-6.978646h87.000454c3.721945 0 6.978646 3.256701 6.978646 6.978646v87.000454c0 4.187188-3.256701 6.978646-6.978646 6.978647z m-80.021808-13.957293H776.955929V444.772376h-73.043162v73.043162zM783.934575 270.771468h-87.000454c-3.721945 0-6.978646-3.256701-6.978646-6.978647V176.792367c0-3.721945 3.256701-6.978646 6.978646-6.978646h87.000454c3.721945 0 6.978646 3.256701 6.978646 6.978646v87.000454c0 3.721945-3.256701 6.978646-6.978646 6.978647z m-80.021808-13.957293H776.955929V183.771013h-73.043162v73.043162zM522.933212 357.771922H441.515675c-3.721945 0-6.978646-3.256701-6.978646-6.978646V284.72876c-3.256701-0.465243-6.04816-3.256701-6.04816-6.978646v-13.957293c0-3.721945 3.256701-6.978646 6.978646-6.978646h87.000454c3.721945 0 6.978646 3.256701 6.978646 6.978646v87.000455c0.465243 3.721945-2.791458 6.978646-6.513403 6.978646z m-74.438891-13.957292h66.995002V270.771468H442.446161c3.256701 0.465243 6.04816 3.256701 6.04816 6.978646v66.064516z" fill="#363636" p-id="7035"></path><path d="M609.933667 357.771922h-87.000455c-3.721945 0-6.978646-3.256701-6.978646-6.978646V263.792821c0-3.721945 3.256701-6.978646 6.978646-6.978646h87.000455c3.721945 0 6.978646 3.256701 6.978646 6.978646v87.000455c0 3.721945-3.256701 6.978646-6.978646 6.978646z m-80.021809-13.957292h73.043162V270.771468h-73.043162v73.043162zM435.932758 444.772376H388.943208c-3.256701 0-6.513403-2.791458-6.978646-6.04816l-3.256702-22.79691c-0.465243-1.860972 0.465243-4.187188 1.395729-5.582917 1.395729-1.395729 3.256701-2.326215 5.117674-2.326215 11.631077 0 20.935938-9.304861 21.401181-20.935939v-4.187187c0-3.721945 3.256701-6.978646 6.978646-6.978646h4.187188c4.652431 0 9.304861-2.326215 12.561563-5.582917 1.860972-2.326215 5.117674-2.791458 7.909132-1.860973 2.791458 0.930486 4.652431 3.721945 4.652431 6.513403v62.807815c0 3.721945-3.256701 6.978646-6.978646 6.978646z m-41.406634-13.957292h33.962745v-42.802363c-2.791458 0.930486-5.582917 1.395729-8.374376 1.860973-1.395729 15.353021-12.09632 27.914584-26.984098 31.171286l1.395729 9.770104z" fill="#363636" p-id="7036"></path><path d="M550.847796 444.772376h-27.914584c-3.721945 0-6.978646-3.256701-6.978646-6.978646V350.793276c0-3.721945 3.256701-6.978646 6.978646-6.978646h87.000455c3.721945 0 6.978646 3.256701 6.978646 6.978646v25.123126c0 3.721945-3.256701 6.978646-6.978646 6.978646h-2.326216c-27.449341 0-49.781009 22.331667-49.781008 49.781008v4.652431c0 3.721945-2.791458 7.443889-6.978647 7.443889z m-20.935938-13.957292h13.957292c0.930486-33.032258 26.518855-59.551113 59.551114-61.877328v-11.165834H530.377101l-0.465243 73.043162zM609.933667 496.414357h-2.791459c-3.721945 0-6.978646-3.256701-6.978646-6.978646s3.256701-6.978646 6.978646-6.978646h2.326215c1.860972 0 3.721945 0.465243 5.117674 1.860972 1.395729 1.395729 2.326215 3.256701 2.326216 5.117674 0 3.721945-3.256701 6.978646-6.978646 6.978646z" fill="#363636" p-id="7037"></path><path d="M522.933212 444.772376H435.932758c-3.721945 0-6.978646-3.256701-6.978646-6.978646V374.985915c0-1.860972 0.465243-3.256701 1.860972-4.65243 2.791458-2.791458 4.187188-6.978646 4.187188-10.700591v-8.839618c0-3.721945 3.256701-6.978646 6.978646-6.978646h80.952294c3.721945 0 6.978646 3.256701 6.978646 6.978646v87.000454c0 3.721945-3.256701 6.978646-6.978646 6.978646z m-80.021808-13.957292h73.043162V357.771922H448.494321v1.860972c0 6.513403-2.326215 12.561563-6.04816 17.679237v53.502953zM696.934121 444.772376h-33.032258c-3.721945 0-6.978646-3.256701-6.978646-6.978646V437.328487c0-1.395729 0.465243-3.256701 0.465243-4.652431 0-26.518855-20.935938-48.850522-47.454793-49.781008-3.721945 0-6.513403-3.256701-6.513403-6.978646v-25.123126c0-3.721945 3.256701-6.978646 6.978646-6.978646h87.000454c3.721945 0 6.978646 3.256701 6.978646 6.978646v87.000454c-0.465243 3.721945-3.721945 6.978646-7.443889 6.978646z m-26.053612-13.957292h19.074966V357.771922h-73.043162v11.631077c30.706043 4.652431 53.502953 30.706043 53.968196 61.412085zM609.933667 270.771468h-87.000455c-3.721945 0-6.978646-3.256701-6.978646-6.978647V176.792367c0-3.721945 3.256701-6.978646 6.978646-6.978646h87.000455c3.721945 0 6.978646 3.256701 6.978646 6.978646v87.000454c0 3.721945-3.256701 6.978646-6.978646 6.978647z m-80.021809-13.957293h73.043162V183.771013h-73.043162v73.043162z" fill="#363636" p-id="7038"></path><path d="M522.933212 270.771468H435.932758c-3.721945 0-6.978646-3.256701-6.978646-6.978647V176.792367c0-3.721945 3.256701-6.978646 6.978646-6.978646h87.000454c3.721945 0 6.978646 3.256701 6.978646 6.978646v87.000454c0 3.721945-3.256701 6.978646-6.978646 6.978647z m-80.021808-13.957293h73.043162V183.771013H442.911404v73.043162zM696.934121 270.771468h-87.000454c-3.721945 0-6.978646-3.256701-6.978647-6.978647V176.792367c0-3.721945 3.256701-6.978646 6.978647-6.978646h87.000454c3.721945 0 6.978646 3.256701 6.978646 6.978646v87.000454c0 3.721945-3.256701 6.978646-6.978646 6.978647z m-80.021808-13.957293h73.043162V183.771013h-73.043162v73.043162z" fill="#363636" p-id="7039"></path><path d="M696.934121 357.771922h-87.000454c-3.721945 0-6.978646-3.256701-6.978647-6.978646V263.792821c0-3.721945 3.256701-6.978646 6.978647-6.978646h87.000454c3.721945 0 6.978646 3.256701 6.978646 6.978646v87.000455c0 3.721945-3.256701 6.978646-6.978646 6.978646z m-80.021808-13.957292h73.043162V270.771468h-73.043162v73.043162zM870.93503 183.771013h-87.000455c-3.721945 0-6.978646-3.256701-6.978646-6.978646V89.791913c0-3.721945 3.256701-6.978646 6.978646-6.978646h87.000455c3.721945 0 6.978646 3.256701 6.978646 6.978646V176.792367c0 3.721945-3.256701 6.978646-6.978646 6.978646z m-80.021809-13.957292h73.043162V96.770559H790.913221v73.043162zM870.93503 618.773285h-87.000455c-3.721945 0-6.978646-3.256701-6.978646-6.978646v-87.000455c0-3.721945 3.256701-6.978646 6.978646-6.978646h87.000455c3.721945 0 6.978646 3.256701 6.978646 6.978646v87.000455c0 4.187188-3.256701 6.978646-6.978646 6.978646z m-80.021809-13.957292h73.043162v-73.043162H790.913221V604.815993zM435.932758 618.773285H414.066333c-3.256701 0-6.513403-2.326215-6.978646-6.04816L394.526124 525.724671c-0.465243-1.860972 0.465243-4.187188 1.39573-5.582917 1.395729-1.395729 3.256701-2.326215 5.117673-2.326216h34.427988c3.721945 0 6.978646 3.256701 6.978646 6.978646v87.000455c0.465243 3.721945-2.791458 6.978646-6.513403 6.978646z m-15.818265-13.957292h8.839619v-73.043162H409.413903l10.70059 73.043162z" fill="#363636" p-id="7040"></path><path d="M783.934575 618.773285h-87.000454c-3.721945 0-6.978646-3.256701-6.978646-6.978646v-87.000455c0-3.721945 3.256701-6.978646 6.978646-6.978646h87.000454c3.721945 0 6.978646 3.256701 6.978646 6.978646v87.000455c0 4.187188-3.256701 6.978646-6.978646 6.978646z m-80.021808-13.957292H776.955929v-73.043162h-73.043162V604.815993zM696.934121 183.771013h-87.000454c-3.721945 0-6.978646-3.256701-6.978647-6.978646V89.791913c0-3.721945 3.256701-6.978646 6.978647-6.978646h87.000454c3.721945 0 6.978646 3.256701 6.978646 6.978646V176.792367c0 3.721945-3.256701 6.978646-6.978646 6.978646z m-80.021808-13.957292h73.043162V96.770559h-73.043162v73.043162zM870.93503 444.772376h-87.000455c-3.721945 0-6.978646-3.256701-6.978646-6.978646V350.793276c0-3.721945 3.256701-6.978646 6.978646-6.978646h87.000455c3.721945 0 6.978646 3.256701 6.978646 6.978646v87.000454c0 3.721945-3.256701 6.978646-6.978646 6.978646z m-80.021809-13.957292h73.043162V357.771922H790.913221v73.043162zM522.933212 618.773285H435.932758c-3.721945 0-6.978646-3.256701-6.978646-6.978646v-87.000455c0-3.721945 3.256701-6.978646 6.978646-6.978646h87.000454c3.721945 0 6.978646 3.256701 6.978646 6.978646v87.000455c-0.465243 4.187188-3.256701 6.978646-6.978646 6.978646z m-80.021808-13.957292h73.043162v-73.043162H442.911404V604.815993z" fill="#363636" p-id="7041"></path><path d="M567.596547 618.773285h-44.663335c-3.721945 0-6.978646-3.256701-6.978646-6.978646v-87.000455c0-3.721945 3.256701-6.978646 6.978646-6.978646h57.224898c1.860972 0 4.187188 0.930486 5.117674 2.326216 1.395729 1.395729 1.860972 3.721945 1.395729 5.582917l-12.561563 87.000454c0 3.721945-3.256701 6.04816-6.513403 6.04816z m-37.684689-13.957292h31.636529l10.700591-73.043162h-42.33712V604.815993zM696.934121 618.773285h-49.781009c-3.256701 0-6.513403-2.326215-6.978646-6.04816l-12.561563-87.000454c-0.465243-1.860972 0.465243-4.187188 1.860973-5.582917 1.395729-1.395729 3.256701-2.326215 5.117673-2.326216h62.342572c3.721945 0 6.978646 3.256701 6.978646 6.978646v87.000455c0 3.721945-3.256701 6.978646-6.978646 6.978646z m-43.732849-13.957292h36.754203v-73.043162h-47.454793l10.70059 73.043162zM870.93503 531.772831h-87.000455c-3.721945 0-6.978646-3.256701-6.978646-6.978647V437.79373c0-3.721945 3.256701-6.978646 6.978646-6.978646h87.000455c3.721945 0 6.978646 3.256701 6.978646 6.978646v87.000454c0 4.187188-3.256701 6.978646-6.978646 6.978647z m-80.021809-13.957293h73.043162V444.772376H790.913221v73.043162zM435.932758 183.771013H348.932303c-3.721945 0-6.978646-3.256701-6.978646-6.978646V89.791913c0-3.721945 3.256701-6.978646 6.978646-6.978646h87.000455c3.721945 0 6.978646 3.256701 6.978646 6.978646V176.792367c-0.465243 3.721945-3.256701 6.978646-6.978646 6.978646z m-80.021808-13.957292h73.043162V96.770559H355.445706l0.465244 73.043162z" fill="#363636" p-id="7042"></path><path d="M522.933212 183.771013H435.932758c-3.721945 0-6.978646-3.256701-6.978646-6.978646V89.791913c0-3.721945 3.256701-6.978646 6.978646-6.978646h87.000454c3.721945 0 6.978646 3.256701 6.978646 6.978646V176.792367c0 3.721945-3.256701 6.978646-6.978646 6.978646z m-80.021808-13.957292h73.043162V96.770559H442.911404v73.043162z" fill="#363636" p-id="7043"></path><path d="M609.933667 183.771013h-87.000455c-3.721945 0-6.978646-3.256701-6.978646-6.978646V89.791913c0-3.721945 3.256701-6.978646 6.978646-6.978646h87.000455c3.721945 0 6.978646 3.256701 6.978646 6.978646V176.792367c0 3.721945-3.256701 6.978646-6.978646 6.978646z m-80.021809-13.957292h73.043162V96.770559h-73.043162v73.043162zM870.93503 270.771468h-87.000455c-3.721945 0-6.978646-3.256701-6.978646-6.978647V176.792367c0-3.721945 3.256701-6.978646 6.978646-6.978646h87.000455c3.721945 0 6.978646 3.256701 6.978646 6.978646v87.000454c0 3.721945-3.256701 6.978646-6.978646 6.978647z m-80.021809-13.957293h73.043162V183.771013H790.913221v73.043162zM435.932758 270.771468H348.932303c-3.721945 0-6.978646-3.256701-6.978646-6.978647V176.792367c0-3.721945 3.256701-6.978646 6.978646-6.978646h87.000455c3.721945 0 6.978646 3.256701 6.978646 6.978646v87.000454c0 3.721945-3.256701 6.978646-6.978646 6.978647z m-80.021808-13.957293h73.043162V183.771013H355.445706l0.465244 73.043162z" fill="#363636" p-id="7044"></path><path d="M870.93503 357.771922h-87.000455c-3.721945 0-6.978646-3.256701-6.978646-6.978646V263.792821c0-3.721945 3.256701-6.978646 6.978646-6.978646h87.000455c3.721945 0 6.978646 3.256701 6.978646 6.978646v87.000455c0 3.721945-3.256701 6.978646-6.978646 6.978646z m-80.021809-13.957292h73.043162V270.771468H790.913221v73.043162zM402.435257 334.509768h-33.962745c-3.721945 0-6.978646-3.256701-6.978646-6.978646v-42.802362H348.932303c-3.721945 0-6.978646-3.256701-6.978646-6.978646v-13.957293c0-3.721945 3.256701-6.978646 6.978646-6.978646h87.000455c3.721945 0 6.978646 3.256701 6.978646 6.978646v13.957293c0 3.721945-3.256701 6.978646-6.978646 6.978646H409.413903v42.802362c0 4.187188-3.256701 6.978646-6.978646 6.978646z m-26.984098-13.957292H395.456611v-42.802362c0-3.721945 3.256701-6.978646 6.978646-6.978646h26.518855-73.043162 12.561562c3.721945 0 6.978646 3.256701 6.978647 6.978646v42.802362z" fill="#363636" p-id="7045"></path><path d="M417.788278 389.873694H279.611086c-16.748751 0-30.706043-13.492049-30.706043-30.706043V277.750114c0-3.721945 3.256701-6.978646 6.978646-6.978646h39.545661c3.721945 0 6.978646 3.256701 6.978646 6.978646v42.802362h20.005452v-42.802362c0-3.721945 3.256701-6.978646 6.978647-6.978646h39.545661c3.721945 0 6.978646 3.256701 6.978646 6.978646v42.802362H395.456611v-42.802362c0-3.721945 3.256701-6.978646 6.978646-6.978646H441.980918c3.721945 0 6.978646 3.256701 6.978646 6.978646v81.88278c0 7.443889-2.791458 14.422535-7.909132 20.005452-6.04816 6.513403-14.422535 10.700591-23.262154 10.235348zM262.862335 284.72876v74.904134c0 9.304861 7.443889 16.748751 16.748751 16.748751h138.177192c4.652431 0 9.304861-2.326215 12.561563-5.582917 2.791458-2.791458 4.187188-6.978646 4.187188-10.700591V284.72876H409.413903v42.802362c0 3.721945-3.256701 6.978646-6.978646 6.978646h-33.962745c-3.721945 0-6.978646-3.256701-6.978646-6.978646v-42.802362h-25.588368v42.802362c0 3.721945-3.256701 6.978646-6.978647 6.978646h-33.962744c-3.721945 0-6.978646-3.256701-6.978646-6.978646v-42.802362h-25.123126zM422.905952 679.254884H275.423898c-1.860972 0-4.187188-0.930486-5.117674-2.326215-1.395729-1.395729-1.860972-3.721945-1.395729-5.582917l37.219446-256.814175c0.465243-3.256701 3.256701-6.04816 6.978646-6.04816h72.577919c3.256701 0 6.04816 2.326215 6.978646 5.582916l28.845071 196.79782 8.839618 60.016356c0.465243 1.860972-0.465243 4.187188-1.395729 5.582917-2.326215 1.860972-4.187188 2.791458-6.04816 2.791458zM283.798274 665.297592h130.733303l-35.358474-242.856883h-60.481599L283.798274 665.297592z" fill="#363636" p-id="7046"></path><path d="M385.686506 421.975466H313.108587c-19.074966 0-34.89323-15.353021-34.89323-34.893231v-4.187187c0-3.721945 3.256701-6.978646 6.978646-6.978646H414.066333c3.721945 0 6.978646 3.256701 6.978647 6.978646v4.187187c-0.465243 19.540209-16.283507 35.358473-35.358474 34.893231z m-93.513857-32.101772c1.395729 10.235348 10.235348 18.14448 20.935938 18.14448h72.577919c10.700591 0 19.540209-7.443889 20.935938-18.14448H292.172649zM658.784189 697.864607h-102.818719c-1.860972 0-3.721945-0.930486-5.117674-2.326215-1.395729-1.395729-1.860972-3.721945-1.395729-5.582917l26.053612-179.118583c0.465243-3.256701 3.256701-6.04816 6.978646-6.04816H632.730577c3.256701 0 6.513403 2.791458 6.978646 6.04816l14.422535 100.492504 11.631077 79.091322c0.465243 3.721945-2.326215 7.443889-6.04816 7.909132-0.465243-0.465243-0.465243-0.465243-0.930486-0.465243z m-94.909587-13.957292h86.535212l-24.19264-165.16129h-38.615175l-23.727397 165.16129z" fill="#363636" p-id="7047"></path><path d="M632.730577 518.746025h-50.711495c-14.422535 0-26.518855-11.631077-26.518855-26.518856v-2.791458c0-3.721945 3.256701-6.978646 6.978646-6.978646h89.791913c3.721945 0 6.978646 3.256701 6.978646 6.978646v2.791458c0 14.422535-12.09632 26.518855-26.518855 26.518856z m-62.342572-22.331668c1.860972 5.117674 6.513403 8.374375 12.09632 8.374375H632.730577c5.582917 0 10.235348-3.256701 12.09632-8.374375h-74.438892z" fill="#363636" p-id="7048"></path><path d="M607.142208 496.414357c-33.032258 0-60.481599-25.123126-63.273058-57.690141 0-1.860972-0.465243-4.187188-0.465243-6.04816 0-35.358473 28.379827-63.738301 63.738301-63.7383H609.933667c33.962744 1.395729 60.946842 29.775557 60.946842 63.7383 0 1.860972 0 4.187188-0.465243 6.04816-3.256701 31.636529-28.84507 56.294412-60.481599 57.690141h-2.791459z m0-113.519309c-27.449341 0-49.781009 22.331667-49.781009 49.781008v4.652431c2.326215 25.588369 23.727397 45.128578 49.315766 45.128578h2.791458c24.657883-0.930486 45.128578-20.470695 47.454794-45.128578 0-1.395729 0.465243-3.256701 0.465243-4.652431 0-26.518855-20.935938-48.850522-47.454793-49.781008H607.142208zM250.300772 714.148114c-0.930486 0-1.860972 0-2.791458-0.465243-0.930486-0.465243-1.860972-0.930486-2.326215-1.395729-1.860972-1.860972-2.326215-4.187188-1.860973-6.513403 0-0.465243 0.465243-0.930486 0.465243-1.395729 0-0.465243 0.465243-0.930486 0.465243-1.395729 0.465243-0.465243 0.465243-0.930486 0.930487-0.930486 1.860972-1.860972 4.187188-2.326215 6.04816-1.860973 0.465243 0 0.930486 0 1.395729 0.465243 0.465243 0 0.930486 0.465243 1.395729 0.465243 0.930486 0.465243 1.395729 1.395729 1.860972 1.860973 0.465243 0.465243 0.465243 0.930486 0.465243 1.395729 0 0.465243 0.465243 0.930486 0.465243 1.395729 0.465243 2.326215-0.465243 4.652431-1.860972 6.513403-1.395729 1.395729-2.791458 1.860972-4.652431 1.860972zM370.798728 707.169468c0-3.721945 3.256701-6.978646 6.978646-6.978646s6.978646 3.256701 6.978646 6.978646-3.256701 6.978646-6.978646 6.978646-6.978646-3.256701-6.978646-6.978646zM307.060427 707.169468c0-3.721945 3.256701-6.978646 6.978646-6.978646s6.978646 3.256701 6.978646 6.978646-3.256701 6.978646-6.978646 6.978646-6.978646-3.256701-6.978646-6.978646zM441.980918 714.148114c-1.860972 0-3.721945-0.930486-5.117674-1.860972-1.395729-1.395729-1.860972-3.256701-1.860972-5.117674v-1.395729c0-0.465243 0-0.930486 0.465243-1.395729 0-0.465243 0.465243-0.930486 0.465243-1.395729 0.465243-0.465243 0.465243-0.930486 0.930486-0.930486 2.791458-2.326215 6.978646-2.326215 9.770104 0l0.930487 0.930486c0.465243 0.465243 0.465243 0.930486 0.465243 1.395729 0.930486 2.791458 0.465243 5.582917-1.39573 7.443889-0.465243 0.465243-1.395729 0.930486-2.326215 1.395729-0.930486 0.930486-1.395729 0.930486-2.326215 0.930486zM535.960018 719.265788c-0.930486 0-1.860972 0-2.791458-0.465243-0.930486-0.465243-1.395729-0.930486-2.326216-1.395729-1.395729-1.395729-1.860972-3.256701-1.860972-5.117674v-1.395729c0-0.465243 0-0.930486 0.465243-1.395729 0-0.465243 0.465243-0.930486 0.465243-1.395729 0.465243-0.465243 0.465243-0.930486 0.930486-0.930487 1.860972-1.860972 4.187188-2.326215 6.513403-1.860972 0.465243 0 0.930486 0.465243 1.39573 0.465243 0.465243 0 0.930486 0.465243 1.395729 0.465243 0.465243 0.465243 0.930486 0.465243 0.930486 0.930486l0.930486 0.930487c0.465243 0.465243 0.465243 0.930486 0.465243 1.395729 0 0.465243 0.465243 0.930486 0.465243 1.395729v1.395729c0 0.930486 0 1.860972-0.465243 2.791459-0.465243 0.930486-0.930486 1.395729-1.395729 2.326215-1.860972 1.395729-3.256701 1.860972-5.117674 1.860972zM623.425716 712.287142c0-3.721945 3.256701-6.978646 6.978646-6.978646s6.978646 3.256701 6.978646 6.978646-3.256701 6.978646-6.978646 6.978646-6.978646-3.256701-6.978646-6.978646z m-47.454794 0c0-3.721945 3.256701-6.978646 6.978646-6.978646s6.978646 3.256701 6.978646 6.978646-3.256701 6.978646-6.978646 6.978646-6.513403-3.256701-6.978646-6.978646zM677.859155 719.265788c-0.930486 0-1.860972 0-2.791458-0.465243-0.930486-0.465243-1.395729-0.930486-2.326216-1.395729-1.395729-1.395729-1.860972-3.256701-1.860972-5.117674 0-1.860972 0.930486-3.721945 1.860972-5.117674 2.791458-2.791458 6.978646-2.791458 9.770105 0l0.930486 0.930487c0.465243 0.465243 0.465243 0.930486 0.465243 1.395729 0 0.465243 0.465243 0.930486 0.465243 1.395729v1.395729c0 1.860972-0.930486 3.721945-1.860972 5.117674-0.465243 0.465243-1.395729 1.395729-2.326216 1.395729-0.465243 0.465243-1.395729 0.465243-2.326215 0.465243zM563.409359 133.059518c0-3.721945 3.256701-6.978646 6.978646-6.978646s6.978646 3.256701 6.978647 6.978646-3.256701 6.978646-6.978647 6.978646-6.978646-2.791458-6.978646-6.978646zM387.082235 133.059518c0-3.721945 3.256701-6.978646 6.978646-6.978646s6.978646 3.256701 6.978646 6.978646-3.256701 6.978646-6.978646 6.978646-6.978646-2.791458-6.978646-6.978646zM472.221717 222.851431c0-3.721945 3.256701-6.978646 6.978646-6.978646s6.978646 3.256701 6.978647 6.978646-3.256701 6.978646-6.978647 6.978646-6.978646-3.256701-6.978646-6.978646zM559.222172 305.199455c0-3.721945 3.256701-6.978646 6.978646-6.978646s6.978646 3.256701 6.978646 6.978646-3.256701 6.978646-6.978646 6.978646-6.978646-3.256701-6.978646-6.978646zM646.222626 222.851431c0-3.721945 3.256701-6.978646 6.978646-6.978646s6.978646 3.256701 6.978646 6.978646-3.256701 6.978646-6.978646 6.978646-6.978646-3.256701-6.978646-6.978646zM729.966379 133.059518c0-3.721945 3.256701-6.978646 6.978646-6.978646s6.978646 3.256701 6.978646 6.978646-3.256701 6.978646-6.978646 6.978646-6.978646-2.791458-6.978646-6.978646zM820.688778 222.851431c0-3.721945 3.256701-6.978646 6.978646-6.978646s6.978646 3.256701 6.978646 6.978646-3.256701 6.978646-6.978646 6.978646c-4.187188 0-6.978646-3.256701-6.978646-6.978646zM733.688323 307.060427c0-3.721945 3.256701-6.978646 6.978647-6.978646s6.978646 3.256701 6.978646 6.978646-3.256701 6.978646-6.978646 6.978646c-4.187188 0-6.978646-3.256701-6.978647-6.978646z" fill="#363636" p-id="7049"></path><path d="M651.805543 388.477965c0-3.721945 3.256701-6.978646 6.978646-6.978647s6.978646 3.256701 6.978646 6.978647-3.256701 6.978646-6.978646 6.978646c-4.187188 0-6.978646-2.791458-6.978646-6.978646zM820.688778 393.595638c0-3.721945 3.256701-6.978646 6.978646-6.978646s6.978646 3.256701 6.978646 6.978646-3.256701 6.978646-6.978646 6.978646c-4.187188 0-6.978646-3.256701-6.978646-6.978646zM733.688323 481.526579c0-3.721945 3.256701-6.978646 6.978647-6.978646s6.978646 3.256701 6.978646 6.978646-3.256701 6.978646-6.978646 6.978646c-4.187188 0-6.978646-3.256701-6.978647-6.978646zM820.688778 570.853249c0-3.721945 3.256701-6.978646 6.978646-6.978647s6.978646 3.256701 6.978646 6.978647-3.256701 6.978646-6.978646 6.978646c-4.187188 0-6.978646-2.791458-6.978646-6.978646zM472.221717 570.853249c0-3.721945 3.256701-6.978646 6.978646-6.978647s6.978646 3.256701 6.978647 6.978647-3.256701 6.978646-6.978647 6.978646-6.978646-2.791458-6.978646-6.978646zM471.291231 393.595638c0-3.721945 3.256701-6.978646 6.978646-6.978646s6.978646 3.256701 6.978646 6.978646-3.256701 6.978646-6.978646 6.978646-6.978646-3.256701-6.978646-6.978646zM369.402999 920.716038c0 3.256701-0.465243 6.04816-1.860973 8.839619-0.930486 2.326215-2.791458 4.652431-5.117673 6.513403-2.326215 1.860972-4.652431 3.256701-7.44389 4.187187-5.117674 1.395729-10.700591 1.860972-15.818264 0.930486l-5.582917-1.395729c-1.395729-0.465243-2.791458-0.930486-3.721944-1.860972-0.930486-0.465243-1.395729-0.930486-2.326216-1.395729-0.465243-0.465243-0.930486-0.930486-0.930486-1.860973s-0.465243-1.860972-0.465243-2.791458v-1.860972c0-0.465243 0-0.930486 0.465243-1.39573 0-0.465243 0.465243-0.465243 0.465243-0.465243h0.930486c0.930486 0 1.395729 0.465243 2.326216 0.930486 0.930486 0.930486 2.326215 1.395729 3.721944 1.860973 1.860972 0.930486 3.256701 1.395729 5.117674 1.860972 2.326215 0.465243 4.652431 0.930486 6.978646 0.930486 1.860972 0 3.721945-0.465243 5.582917-0.930486 1.395729-0.465243 3.256701-1.395729 4.187188-2.326215 1.395729-0.930486 2.326215-2.326215 2.791458-3.721945 0.465243-1.395729 0.930486-3.256701 0.930486-5.117674 0-1.860972 0-3.721945-0.930486-5.582917-0.930486-1.395729-2.326215-2.791458-3.721945-3.721944-1.395729-0.930486-3.256701-2.326215-5.117673-2.791459l-6.04816-2.791458c-1.860972-0.930486-3.721945-1.860972-5.582917-3.256701-1.860972-0.930486-3.721945-2.326215-5.117674-4.187188-1.395729-1.395729-2.791458-3.256701-3.721944-5.582917-0.930486-2.326215-1.395729-4.652431-1.39573-7.443889 0-2.791458 0.465243-5.582917 1.39573-7.909132 0.930486-2.326215 2.791458-4.187188 4.65243-5.582917 1.860972-1.395729 4.187188-2.791458 6.978646-3.721945 2.791458-0.930486 5.582917-1.395729 8.374376-1.395729 1.395729 0 3.256701 0 4.65243 0.465243 1.395729 0.465243 3.256701 0.465243 4.652431 0.930486 1.395729 0.465243 2.326215 0.930486 3.721945 1.395729 0.930486 0.465243 1.395729 0.930486 2.326215 1.39573 0.465243 0.465243 0.465243 0.465243 0.465243 0.930486s0 0.465243 0.465243 0.930486v6.04816c0 0.465243-0.465243 0.465243-0.465243 0.930486h-0.930486c-0.465243 0-1.395729-0.465243-1.860972-0.930486l-3.256702-1.860972c-1.395729-0.930486-2.791458-1.395729-4.187188-1.860973-1.860972-0.465243-3.721945-0.930486-5.582916-0.930486-1.860972 0-3.256701 0-5.117674 0.930486-1.395729 0.465243-2.326215 0.930486-3.721945 1.860973-0.930486 0.930486-1.860972 1.860972-2.326215 3.256701-0.465243 1.395729-0.930486 2.326215-0.930486 3.721945 0 1.860972 0.465243 3.721945 1.395729 5.117673 0.930486 1.395729 2.326215 2.791458 3.721944 3.721945 1.860972 0.930486 3.256701 2.326215 5.117674 2.791458l6.04816 2.791459c1.860972 0.930486 4.187188 1.860972 6.04816 3.256701 1.860972 0.930486 3.721945 2.326215 5.117674 3.721945 1.395729 1.395729 2.791458 3.256701 3.721944 5.117674 0.930486 4.187188 0.930486 6.978646 0.930487 9.304861zM426.162653 874.191731v1.860972c0 0.465243 0 0.930486-0.465243 1.39573 0 0.465243-0.465243 0.465243-0.465243 0.465243H404.761472V939.791004c0 0.465243-0.465243 0.465243-0.930486 0.465243s-0.930486 0.465243-1.395729 0.465243h-4.652431c-0.465243 0-0.930486 0-1.395729-0.465243-0.465243 0-0.930486 0-0.930486-0.465243V877.913676h-20.935939c-0.465243 0-0.465243-0.465243-0.465243-0.465243 0-0.465243-0.465243-0.930486-0.465243-1.39573v-3.721944c0-0.465243 0-0.930486 0.465243-1.395729 0-0.465243 0.465243-0.465243 0.465243-0.465244 0.465243 0 0.465243 0 0.930487-0.465243h49.315765c0.465243 0 0.465243 0 0.930486 0.465243 0.465243 0 0.465243 0.465243 0.465243 0.465244 0 0.465243 0.465243 0.930486 0.465243 1.395729-0.465243 0.465243-0.465243 1.395729-0.465243 1.860972zM483.387551 939.325761v0.930486c0 0.465243-0.465243 0.465243-0.930486 0.465243s-0.930486 0.465243-1.395729 0.465243h-5.117674c-0.465243 0-0.930486 0-1.395729-0.465243-0.465243 0-0.465243-0.465243-0.930486-0.465243 0-0.465243-0.465243-0.465243-0.465243-0.930486l-6.513403-16.748751c-0.930486-1.860972-1.395729-3.721945-2.326216-5.117673l-2.791458-4.187188c-0.930486-0.930486-2.326215-1.860972-4.187188-2.791458-1.860972-0.465243-3.721945-0.930486-5.582917-0.930487h-6.513403V940.256247s-0.465243 0.465243-0.930486 0.465243-0.930486 0.465243-1.395729 0.465243h-4.652431c-0.465243 0-0.930486 0-1.395729-0.465243-0.465243 0-0.465243-0.465243-0.930486-0.465243v-66.064516c0-0.930486 0.465243-2.326215 0.930486-2.791458 0.465243-0.465243 1.395729-0.930486 2.326215-0.930487h19.540209l3.256702 0.465244c2.326215 0.465243 5.117674 0.930486 7.443889 2.326215 1.860972 0.930486 3.721945 2.326215 5.117674 3.721944 1.395729 1.395729 2.326215 3.256701 3.256701 5.117674 0.465243 2.326215 0.465243 4.187188 0.465243 6.513403 0 2.326215-0.465243 4.187188-0.930486 6.513403-0.465243 1.860972-1.395729 3.721945-2.791458 5.117674-1.395729 1.395729-2.791458 2.791458-4.187188 3.721945l-5.582917 2.791458c0.930486 0.465243 2.326215 0.930486 3.256702 1.860972l2.791458 2.791459c0.930486 1.395729 1.860972 2.326215 2.326216 3.721944 0.930486 1.395729 1.395729 3.256701 2.326215 4.652431l6.513403 15.353021c0.465243 1.395729 0.930486 2.326215 0.930486 2.791459 0.465243 0.465243 0.465243 0.930486 0.465243 1.395729z m-13.957292-49.781009c0-2.326215-0.465243-5.117674-1.860972-6.978646-1.395729-1.860972-3.721945-3.721945-6.04816-4.187187-0.930486-0.465243-1.860972-0.465243-3.256702-0.465243h-12.561563v23.727396h9.304862c2.326215 0 4.187188-0.465243 6.513403-0.930486 1.860972-0.465243 3.256701-1.395729 4.65243-2.326215 0.930486-0.930486 1.860972-2.326215 2.791459-3.721945 0.465243-1.860972 0.465243-3.256701 0.465243-5.117674zM549.91731 937.464789c0.465243 0.465243 0.465243 1.395729 0.465243 1.860972 0 0.465243 0 0.930486-0.465243 0.930486-0.465243 0.465243-0.930486 0.465243-1.395729 0.465243h-5.582917c-0.465243 0-0.930486 0-1.395729-0.465243-0.465243 0-0.465243-0.465243-0.930486-0.465243 0-0.465243-0.465243-0.465243-0.465243-0.930486l-6.04816-17.213994h-29.310314l-5.582916 16.748751c0 0.465243-0.465243 0.465243-0.465244 0.930486s-0.465243 0.465243-0.930486 0.465243-0.930486 0.465243-1.395729 0.465243h-5.117674c-0.465243 0-0.930486 0-1.395729-0.465243-0.465243-0.465243-0.465243-0.930486-0.465243-0.930486 0-0.465243 0-1.395729 0.465243-1.860972l23.727397-65.599273c0-0.465243 0.465243-0.465243 0.465243-0.930487 0.465243-0.465243 0.465243-0.465243 0.930486-0.465243s0.930486-0.465243 1.860972-0.465243h5.582917c0.465243 0 1.395729 0 1.860972 0.465243 0.465243 0 0.930486 0.465243 0.930487 0.465243 0.465243 0.465243 0.465243 0.465243 0.465243 0.930487l24.192639 66.064516z m-30.240799-58.155384l-12.561563 35.358473h24.657883l-12.09632-35.358473zM597.372104 874.191731v1.860972c0 0.465243 0 0.930486-0.465243 1.39573 0 0.465243-0.465243 0.465243-0.465244 0.465243h-20.935938V939.791004c0 0.465243-0.465243 0.465243-0.930486 0.465243s-0.930486 0.465243-1.395729 0.465243h-4.652431c-0.465243 0-0.930486 0-1.395729-0.465243-0.465243 0-0.465243-0.465243-0.930486-0.465243V877.913676h-20.935938c-0.465243 0-0.465243-0.465243-0.465243-0.465243 0-0.465243-0.465243-0.930486-0.465244-1.39573v-3.721944c0-0.465243 0-0.930486 0.465244-1.395729 0-0.465243 0.465243-0.465243 0.465243-0.465244 0.465243 0 0.465243 0 0.930486-0.465243H595.511131c0.465243 0 0.465243 0 0.930486 0.465243 0.465243 0 0.465243 0.465243 0.465244 0.465244 0 0.465243 0.465243 0.930486 0.465243 1.395729v1.860972zM646.687869 936.534303v1.860972c0 0.465243 0 0.930486-0.465243 1.395729 0 0.465243-0.465243 0.465243-0.465243 0.465243-0.465243 0-0.465243 0.465243-0.930486 0.465243h-33.962744c-0.930486 0-1.860972-0.465243-2.326216-0.930486-0.930486-0.930486-1.395729-1.860972-0.930486-2.791458v-62.807815c0-0.930486 0.465243-2.326215 0.930486-2.791458 0.465243-0.465243 1.395729-0.930486 2.326216-0.930487h33.497501c0.465243 0 0.465243 0 0.930486 0.465244 0.465243 0 0.465243 0.465243 0.465243 0.465243 0 0.465243 0.465243 0.930486 0.465243 1.395729v3.721944c0 0.465243 0 0.930486-0.465243 1.39573 0 0.465243-0.465243 0.465243-0.465243 0.465243-0.465243 0-0.465243 0-0.930486 0.465243h-27.449341v22.331667h23.727396c0.465243 0 0.465243 0 0.930486 0.465243 0.465243 0 0.465243 0.465243 0.465243 0.465243 0 0.465243 0.465243 0.930486 0.465244 0.930486v3.721945c0 0.465243 0 0.930486-0.465244 0.930486 0 0.465243-0.465243 0.465243-0.465243 0.465243-0.465243 0-0.465243 0-0.930486 0.465243h-23.727396v25.123126h27.914584c0.465243 0 0.465243 0 0.930486 0.465243 0.465243 0 0.465243 0.465243 0.465243 0.465243 0 0.465243 0.465243 0.930486 0.465243 0.930486v0.930487zM713.682871 879.774648v1.860972c0 0.465243 0 0.930486-0.465243 1.395729 0 0.465243-0.465243 0.465243-0.465243 0.930487h-0.465243c-0.930486 0-1.395729-0.465243-2.326215-0.930487-1.395729-0.930486-2.791458-1.395729-4.187188-2.326215-1.860972-0.930486-4.187188-1.860972-6.04816-2.326215-2.791458-0.930486-5.582917-0.930486-8.374375-0.930486-3.721945 0-6.978646 0.465243-10.235348 1.860972-2.791458 1.395729-5.582917 3.256701-7.909132 6.04816-2.326215 2.791458-3.721945 5.582917-5.117674 8.839618-0.930486 3.721945-1.860972 7.443889-1.860972 11.165834 0 4.187188 0.465243 8.374375 1.860972 12.09632 0.930486 3.256701 2.791458 6.04816 5.117674 8.839618 2.326215 2.326215 4.652431 4.187188 7.909132 5.582917 3.256701 1.395729 6.513403 1.860972 10.235348 1.860972 2.326215 0 4.652431-0.465243 6.513403-0.930486 2.326215-0.465243 4.187188-1.395729 6.04816-2.326215v-20.470695h-16.283508c-0.465243 0-1.395729-0.465243-1.395729-0.930487-0.465243-0.930486-0.465243-1.860972-0.465243-2.791458v-1.860972c0-0.465243 0-0.930486 0.465243-1.39573 0-0.465243 0.465243-0.465243 0.465243-0.465243 0.465243 0 0.465243 0 0.930486-0.465243h22.331668c0.465243 0 0.930486 0 1.395729 0.465243 0.465243 0 0.930486 0.465243 0.930486 0.465243 0.465243 0.465243 0.465243 0.930486 0.930486 1.39573 0 0.465243 0.465243 0.930486 0.465243 1.860972v26.984098c0 0.930486 0 1.860972-0.465243 2.326215-0.465243 0.930486-1.395729 1.395729-1.860972 1.860973-0.930486 0.465243-2.326215 0.930486-4.187188 1.860972s-3.256701 0.930486-5.117673 1.395729c-1.860972 0.465243-3.721945 0.930486-5.582917 0.930486-1.860972 0-3.721945 0.465243-5.582917 0.465243-5.117674 0-9.770104-0.930486-14.422535-2.791458-4.187188-1.395729-7.909132-4.187188-10.700591-7.443889-3.256701-3.256701-5.117674-6.978646-6.978646-11.165834-1.860972-4.652431-2.326215-9.770104-2.326215-14.422535 0-5.117674 0.930486-10.235348 2.791458-15.353021 1.395729-4.187188 4.187188-8.374375 6.978646-11.631077 3.256701-3.256701 6.978646-5.582917 11.165834-7.443889 4.652431-1.860972 9.304861-2.791458 14.422535-2.791459 2.326215 0 5.117674 0 7.443889 0.465243s4.187188 0.930486 6.513403 1.860973c1.395729 0.465243 3.256701 1.395729 4.652431 1.860972 0.930486 0.465243 1.860972 0.930486 2.791458 1.860972 0.465243 0.465243 0.930486 0.930486 0.930486 1.860972-0.465243 0.930486-0.465243 1.860972-0.465243 2.791459zM751.832803 913.272149v26.984098c0 0.465243-0.465243 0.465243-0.930486 0.465243s-0.930486 0.465243-1.395729 0.465243h-4.652431c-0.465243 0-0.930486 0-1.395729-0.465243-0.465243 0-0.465243-0.465243-0.930486-0.465243v-26.984098l-20.005452-40.010904c-0.465243-0.465243-0.465243-1.395729-0.930486-1.860972 0-0.465243 0-0.930486 0.465243-0.930487 0.465243-0.465243 0.930486-0.465243 1.395729-0.465243h5.582917c0.465243 0 0.930486 0 1.395729 0.465243 0.465243 0 0.465243 0.465243 0.930486 0.465244 0.465243 0.465243 0.465243 0.465243 0.465243 0.930486l9.770105 20.470695c0.930486 1.860972 1.860972 4.187188 2.791458 6.04816l2.791459 6.513403c0.930486-1.860972 1.860972-4.187188 2.791458-6.04816s1.860972-4.187188 2.791458-6.04816l9.770105-20.470695c0-0.465243 0.465243-0.465243 0.465243-0.930486s0.465243-0.465243 0.930486-0.465243 0.930486-0.465243 1.395729-0.465244h5.582917c0.465243 0 0.930486 0 1.395729 0.465244 0.465243 0.465243 0.465243 0.930486 0.465243 0.930486 0 0.465243-0.465243 1.395729-0.930486 1.860972l-20.005452 39.545661z" fill="#363636" p-id="7050"></path></svg>