<?xml version="1.0" standalone="no"?><!DOCTYPE svg PUBLIC "-//W3C//DTD SVG 1.1//EN" "http://www.w3.org/Graphics/SVG/1.1/DTD/svg11.dtd"><svg t="1583723832889" class="icon" viewBox="0 0 1024 1024" version="1.1" xmlns="http://www.w3.org/2000/svg" p-id="2097" xmlns:xlink="http://www.w3.org/1999/xlink" width="200" height="200"><defs><style type="text/css"></style></defs><path d="M320.008314 575.97608l0 191.991686 511.978511 0L831.986825 575.97608 320.008314 575.97608zM797.854447 733.835388 354.139669 733.835388l0-123.727952 443.714777 0L797.854447 733.835388z" p-id="2098"></path><path d="M320.008314 305.053718l507.954871 0c9.425673 0 17.065677-7.641027 17.065677-17.065677 0-9.425673-7.641027-17.065677-17.065677-17.065677L320.008314 270.922363c-9.425673 0-17.065677 7.641027-17.065677 17.065677C302.941614 297.41269 310.582641 305.053718 320.008314 305.053718z" p-id="2099"></path><path d="M827.963185 398.916479 320.008314 398.916479c-9.425673 0-17.065677 7.641027-17.065677 17.065677s7.641027 17.065677 17.065677 17.065677l507.954871 0c9.425673 0 17.065677-7.641027 17.065677-17.065677S837.388858 398.916479 827.963185 398.916479z" p-id="2100"></path><path d="M136.548956 0l0 238.923578L0.021489 238.923578l0 785.033443 136.527466 0 34.131355 0 853.297177 0L1023.977487 0 136.548956 0zM34.153868 989.824643 34.153868 273.054933l102.396111 0 0 716.76971L34.153868 989.824643zM989.846132 989.824643 170.681334 989.824643l0-750.902088L170.681334 34.132378l819.165822 0L989.847156 989.824643z" p-id="2101"></path></svg>